<?xml version="1.0" encoding="UTF-8" standalone="no"?>
<svg
   id="ez0pmUEBfok1"
   viewBox="0 0 300 300"
   shape-rendering="geometricPrecision"
   text-rendering="geometricPrecision"
   project-id="5e43dbcad2a64d8489a942c0a4b5dd7d"
   export-id="09ae2d26567f4037b4a1cf6791d95ed1"
   cached="false"
   version="1.1"
   sodipodi:docname="grass-3.svg"
   inkscape:version="1.4 (1:1.4+202410161351+e7c3feb100)"
   xmlns:inkscape="http://www.inkscape.org/namespaces/inkscape"
   xmlns:sodipodi="http://sodipodi.sourceforge.net/DTD/sodipodi-0.dtd"
   xmlns="http://www.w3.org/2000/svg"
   xmlns:svg="http://www.w3.org/2000/svg">
  <defs
     id="defs8" />
  <sodipodi:namedview
     id="namedview8"
     pagecolor="#505050"
     bordercolor="#eeeeee"
     borderopacity="1"
     inkscape:showpageshadow="0"
     inkscape:pageopacity="0"
     inkscape:pagecheckerboard="0"
     inkscape:deskcolor="#505050"
     inkscape:zoom="3.8881951"
     inkscape:cx="135.02409"
     inkscape:cy="165.50096"
     inkscape:window-width="1920"
     inkscape:window-height="1016"
     inkscape:window-x="0"
     inkscape:window-y="0"
     inkscape:window-maximized="1"
     inkscape:current-layer="g8" />
  <g
     transform="translate(-27.20954-213.943623)"
     id="g8">
    <g
       transform="translate(-45.923877 57.404846)"
       id="g2">
      <g
         id="g1">
        <path
           d="M-238.18666,522.97561v-484.90952h1300v484.90952h-1300Z"
           transform="matrix(-1 0 0 1 663.48485 13.805596)"
           fill="#fff"
           id="path1"
           style="fill:#ffffff;fill-opacity:0" />
      </g>
    </g>
    <g
       transform="translate(-140.81124,20.560856)"
       id="g7">
      <g
         id="g6">
        <path
           d="m 312.37624,528.55145 c 3.40641,-22.76326 15.28404,-31.43781 15.49885,-31.59004 -0.24598,0.0376 -13.47983,2.38882 -20.87921,19.037 0.13245,-0.64489 4.54169,-21.52118 8.93814,-36.97494 -0.36563,0.34126 -11.99784,11.62294 -16.4004,38.11247 0,0 -2.23941,-34.7559 -5.96748,-45.97151 0,0 1.48867,24.66864 -2.2394,33.63761 0,0 -5.96748,-7.84983 -7.46227,-35.87504 0,0 -3.72807,16.8188 -2.23272,41.47824 0,0 -4.47213,-21.28447 -8.95094,-29.1343 0.15137,0.43578 6.65477,19.21767 2.2394,33.62841 0,0 -2.2394,-22.42201 -13.42306,-32.50928 0.20813,0.47426 7.96702,17.77651 5.70258,31.52314 -1.48867,-8.14426 -5.42488,-26.06213 -13.0324,-38.21703 0.28995,0.87239 6.95139,20.90473 1.02844,30.69841 -1.65284,-9.53773 -6.69929,-27.92985 -10.91264,-33.67524 0,0 4.57953,8.53235 6.90074,29.37101 -2.04351,-5.89679 -4.92624,-14.95107 -6.76217,-23.86316 0,0 -0.13245,11.92656 3.91729,27.03906 -0.47916,-1.44116 -5.68978,-16.71425 -11.98504,-23.08529 0,0 3.50101,8.4186 5.21674,20.06078 -2.20156,-7.8214 -5.19114,-14.97951 -9.22863,-19.18923 0.17029,0.25595 3.01518,4.50331 5.97359,14.73277 -6.90742,-12.04032 -13.88997,-6.1059 -14.52106,-3.26122 0,0 3.78484,-2.84384 8.2002,0.94767 3.45149,2.96428 5.17278,7.58469 6.91967,13.48147 v 0.009 c -2.85769,-1.07146 -6.45943,-3.64096 -8.81236,-9.69834 0,0 -0.36563,5.52709 2.83209,14.9034 -2.38299,-3.50127 -5.60185,-7.66917 -9.4902,-11.39794 -0.31499,-2.6707 -0.86259,-5.44261 -1.74021,-8.24547 0,0 0.0829,2.78697 -0.0562,6.59688 -1.11915,-0.97862 -2.28615,-1.91207 -3.49935,-2.77609 0.22428,0.2459 1.65563,1.8234 3.42979,4.37282 -0.13134,2.59207 -0.3712,5.50199 -0.7986,8.28059 -1.52651,-2.16885 -2.77143,-4.80107 -3.29344,-7.941 0,0 0.002,5.00766 2.51989,11.86717 -0.13579,0.54451 -0.27881,1.07815 -0.43631,1.58502 -1.70014,-2.01661 -4.2818,-5.94697 -5.86841,-12.50369 0,0 -0.29885,1.81922 -0.23875,4.66724 -0.92881,-3.41679 -2.26055,-7.27103 -4.17662,-11.30343 0,0 1.89214,12.3247 0.63053,19.90939 0,0 -5.04645,-9.48086 -5.67697,-31.28642 0,0 -1.48088,6.13349 -1.32061,16.68163 -1.20373,-4.74754 -3.13705,-10.89442 -6.24907,-18.5778 0,0 3.78484,18.01322 1.89214,29.39025 0,0 0.63053,-13.27321 -7.56967,-31.28642 0,0 2.77922,11.94831 2.34848,23.04179 -0.94885,-14.85404 -5.50223,-23.98946 -5.50223,-23.98946 1.26161,11.37703 -3.15375,20.85789 -3.15375,20.85789 -1.26162,-4.74001 -1.89214,-14.22087 -1.89214,-14.22087 -1.26162,6.63618 -2.52323,13.2732 -2.52323,13.2732 0.63053,-5.68851 -1.26161,-17.06555 -1.26161,-17.06555 -0.46191,10.4118 -2.95118,21.83233 -4.25175,27.20719 -2.1921,-12.25611 1.72908,-29.10336 1.72908,-29.10336 -8.2002,18.01322 -7.56967,31.28643 -7.56967,31.28643 -1.89214,-11.37704 1.89214,-29.39026 1.89214,-29.39026 -3.11202,7.68339 -5.04534,13.83027 -6.24907,18.57781 0.16027,-10.54814 -1.3206,-16.68163 -1.3206,-16.68163 -0.63053,21.80556 -5.67698,31.28642 -5.67698,31.28642 -1.26161,-7.58469 0.63053,-19.90939 0.63053,-19.90939 -1.91607,4.0324 -3.24781,7.88664 -4.17662,11.30343 0.0601,-2.84802 -0.23875,-4.66725 -0.23875,-4.66725 -1.58606,6.55673 -4.16827,10.48625 -5.86841,12.5037 -0.1575,-0.50687 -0.30052,-1.03967 -0.43631,-1.58502 2.51766,-6.85951 2.51989,-11.86718 2.51989,-11.86718 -0.52201,3.13993 -1.76693,5.77216 -3.29344,7.94101 -0.4274,-2.7786 -0.66781,-5.68852 -0.79859,-8.2806 1.77415,-2.54942 3.20606,-4.12691 3.42978,-4.37282 -1.2132,0.86403 -2.3802,1.79831 -3.49935,2.77609 -0.13913,-3.80991 -0.0562,-6.59687 -0.0562,-6.59687 -0.87762,2.80285 -1.42522,5.57476 -1.74021,8.24546 -3.88779,3.72878 -7.10721,7.89668 -9.49019,11.39794 3.19827,-9.3763 2.83208,-14.90339 2.83208,-14.90339 -2.35293,6.05822 -5.95467,8.62771 -8.81236,9.69833 v -0.009 c 1.74745,-5.89679 3.46874,-10.51719 6.91967,-13.48148 4.41536,-3.79234 8.2002,-0.94766 8.2002,-0.94766 -0.63053,-2.84384 -7.61364,-8.77911 -14.52106,3.26121 2.95841,-10.22946 5.8033,-14.47682 5.97359,-14.73276 -4.03693,4.20972 -7.02707,11.36699 -9.22863,19.18923 1.71573,-11.64218 5.21674,-20.06079 5.21674,-20.06079 -6.29526,6.37104 -11.50588,21.64414 -11.98504,23.08529 4.04974,-15.1125 3.91729,-27.03906 3.91729,-27.03906 -1.83538,8.91209 -4.71811,17.96554 -6.76217,23.86316 2.32121,-20.83865 6.90074,-29.37101 6.90074,-29.37101 -4.2139,5.74539 -9.2598,24.13751 -10.91264,33.67525 -5.92295,-9.79368 0.73794,-29.82603 1.02844,-30.69842 -7.60752,12.15407 -11.54373,30.07277 -13.03239,38.21703 -2.26445,-13.74662 5.49444,-31.04888 5.70257,-31.52313 -11.184215,10.08727 -13.423062,32.50927 -13.423062,32.50927 -4.415364,-14.41074 2.088032,-33.19179 2.239403,-33.62841 -4.478807,7.84984 -8.950935,29.13431 -8.950935,29.13431 1.494791,-24.65944 -2.232725,-41.47824 -2.232725,-41.47824 -1.494791,28.0252 -7.462266,35.87504 -7.462266,35.87504 -3.728072,-8.96897 -2.239403,-33.63761 -2.239403,-33.63761 -3.728072,11.2156 -5.967476,45.97151 -5.967476,45.97151 -4.403121,-26.4887 -16.034773,-37.77122 -16.400402,-38.11248 4.396443,15.45377 8.805686,36.33006 8.938135,36.97494 -7.39938,-16.64817 -20.63323,-18.99936 -20.879208,-19.037 0.214257,0.1514 12.092444,8.82678 15.498852,31.59005 -6.83786,-5.25274 -14.23724,-4.6363 -14.23724,-4.6363 0,0 0.998916,6.34863 7.938061,22.46651 l 262.415806,2.82908 c 6.93859,-16.11704 15.39598,-25.29559 15.39598,-25.29559 0,0 -7.39938,-0.61644 -14.23724,4.63546 z M 138.81302,518.10369 c 1.06683,-4.62626 3.00906,-8.75736 4.93849,-12.0353 -0.14859,2.91744 -0.0373,5.65924 0.20813,8.12 -1.85708,1.81002 -3.76035,3.10397 -5.14662,3.9153 z m 84.70387,-3.9153 c 0.24542,-2.46076 0.35673,-5.20256 0.20814,-8.12 1.92942,3.27794 3.87165,7.40904 4.93848,12.0353 -1.38627,-0.81134 -3.28954,-2.10528 -5.14662,-3.9153 z"
           transform="translate(130.52606,-146.9623)"
           fill="#4fc646"
           id="path6"
           style="fill:#c3cf62;fill-opacity:1"
           sodipodi:nodetypes="sccccccccccccccccccccccccccccccccccccccccccccccccccccccccccccccccccccccccccccccccccccccccccccccccccccccccsscccccccc" />
      </g>
    </g>
    <rect
       style="fill:#c3cf62"
       id="rect1"
       width="278.27823"
       height="45.265217"
       x="32.096127"
       y="415.57959"
       ry="10.544752" />
    <rect
       style="fill:#c3cf62"
       id="rect2"
       width="0.25718874"
       height="4.1150198"
       x="154.00359"
       y="436.92627"
       ry="0.12859437" />
  </g>
  <path
     d=""
     fill="none"
     stroke="#3f5787"
     stroke-width="0.6"
     id="path8" />
</svg>
