<?xml version="1.0" encoding="UTF-8" standalone="no"?>
<svg
   id="eymOJxaW7s91"
   viewBox="0 0 300 300"
   shape-rendering="geometricPrecision"
   text-rendering="geometricPrecision"
   project-id="5e43dbcad2a64d8489a942c0a4b5dd7d"
   export-id="e59b9d49d16f4d699e08e079b2d60a14"
   cached="false"
   version="1.1"
   sodipodi:docname="grass-2.svg"
   inkscape:version="1.4 (1:1.4+202410161351+e7c3feb100)"
   xmlns:inkscape="http://www.inkscape.org/namespaces/inkscape"
   xmlns:sodipodi="http://sodipodi.sourceforge.net/DTD/sodipodi-0.dtd"
   xmlns="http://www.w3.org/2000/svg"
   xmlns:svg="http://www.w3.org/2000/svg">
  <defs
     id="defs7" />
  <sodipodi:namedview
     id="namedview7"
     pagecolor="#505050"
     bordercolor="#eeeeee"
     borderopacity="1"
     inkscape:showpageshadow="0"
     inkscape:pageopacity="0"
     inkscape:pagecheckerboard="0"
     inkscape:deskcolor="#505050"
     inkscape:zoom="3.8230906"
     inkscape:cx="138.36973"
     inkscape:cy="231.09575"
     inkscape:window-width="1920"
     inkscape:window-height="1016"
     inkscape:window-x="0"
     inkscape:window-y="0"
     inkscape:window-maximized="1"
     inkscape:current-layer="g7"
     showgrid="false" />
  <g
     transform="translate(-27.20954-213.943623)"
     id="g7">
    <g
       transform="translate(-45.923877 57.404846)"
       id="g1">
      <rect
         width="600"
         height="600"
         rx="0"
         ry="0"
         fill="#fff"
         id="rect1"
         style="fill:#ffffff;fill-opacity:0" />
    </g>
    <g
       id="g6"
       style="fill:#c3cf62;fill-opacity:1">
      <g
         id="g5"
         style="fill:#c3cf62;fill-opacity:1">
        <path
           d="M457.154,364.988c12.48-16.86,25.49-20.87,26.11-21.05-.69.5-23.03,16.57-25.98,52.99-.41,4.25-.36,8.44-.15,12h-39.92c-5.78-35.82-32.96-61.38-33.9-62.27.85.24,19.24,5.99,33.28,32.5-7.67-45.23-27.31-67.3-27.31-67.3s21.5,13.44,34.71,54.4c-6.16-39.03-23.19-70.22-50.71-88.33c0,0,35.82,8.77,56.57,66.07-4.29-48.24-17.04-72.49-12.57-100.07c0,0,6,42,19,68c.38.75.73,1.52,1.08,2.28c2.35-23.64,7.23-48.87,16.91-68.26-.27,1.17-10.93,47.35-5.99,75.98.46,2.66.82,5.37,1.11,8.09c6.85-17.95,17.04-27.86,17.46-28.26-.21.48-7.06,16.07-10.07,37.64c20.36-38.29,46.66-45.26,47.48-45.46-23.32,15.35-39.09,40.11-47.11,71.05Z"
           transform="translate(-265.975786 35.399656)"
           fill="#4fc646"
           id="path4"
           style="fill:#c3cf62;fill-opacity:1" />
      </g>
    </g>
    <rect
       style="fill:#c3cf62"
       id="rect2"
       width="62.2533"
       height="58.852909"
       x="141.77654"
       y="440.98508"
       ry="10.544752"
       rx="20.66391" />
  </g>
  <path
     d=""
     fill="none"
     stroke="#3f5787"
     stroke-width="0.6"
     id="path7" />
</svg>
